<?xml version="1.0" encoding="utf-8"?>
<!-- Svg Vector Icons : http://www.onlinewebfonts.com/icon -->
<!DOCTYPE svg PUBLIC "-//W3C//DTD SVG 1.1//EN" "http://www.w3.org/Graphics/SVG/1.1/DTD/svg11.dtd">
<svg version="1.1" xmlns="http://www.w3.org/2000/svg" xmlns:xlink="http://www.w3.org/1999/xlink" x="0px" y="0px" viewBox="0 0 1000 1000" enable-background="new 0 0 1000 1000" xml:space="preserve">
<metadata> Svg Vector Icons : http://www.onlinewebfonts.com/icon </metadata>
<g><g transform="translate(0.000000,512.000000) scale(0.100000,-0.100000)"><path d="M519.2,4990.7c-189.7-67.1-329.6-208.9-390.9-400.5C99.6,4505.9,97.6,4088.1,101.5,79l5.7-4417.3l47.9-95.8c59.4-122.7,174.4-237.6,297-297L548-4779h4455.6h4455.6l95.8,47.9c122.7,59.4,237.6,174.4,297,297l47.9,95.8V117.3V4573l-47.9,95.8c-59.4,122.6-174.4,237.6-297,297l-95.8,47.9l-4426.9,3.8C1044.3,5021.4,597.8,5019.5,519.2,4990.7z M8683.1,117.3v-3679.5H5003.6H1324.1V117.3v3679.5h3679.5h3679.5V117.3z"/><path d="M3173.5,1317c-70.9-32.6-557.7-496.3-594.1-569.2c-36.4-67.1-36.4-153.3-1.9-233.8c28.7-69,2196.2-2148.3,2297.8-2202c76.7-44.1,174.4-42.1,266.4,0c92,42.2,2247.9,2100.4,2286.3,2180.9c36.4,76.7,36.4,166.7,1.9,235.7c-40.2,76.7-525.1,538.5-597.9,569.2c-84.3,36.4-187.8,34.5-260.6-3.8c-34.5-17.2-392.9-348.8-799.1-735.9c-406.3-389-747.4-707.1-758.9-707.1c-9.6,0-358.4,323.9-774.2,718.6c-419.7,402.5-783.8,732.1-818.3,747.4C3342.1,1349.6,3248.2,1349.6,3173.5,1317z"/></g></g>
</svg>